<?xml version="1.0" standalone="no"?>
<!DOCTYPE svg PUBLIC "-//W3C//DTD SVG 20010904//EN"
 "http://www.w3.org/TR/2001/REC-SVG-20010904/DTD/svg10.dtd">
<svg version="1.0" xmlns="http://www.w3.org/2000/svg"
 width="232.000000pt" height="232.000000pt" viewBox="0 0 232.000000 232.000000"
 preserveAspectRatio="xMidYMid meet">
<metadata>
Created by potrace 1.14, written by Peter Selinger 2001-2017
</metadata>
<g transform="translate(0.000000,232.000000) scale(0.100000,-0.100000)"
fill="#000000" stroke="none">
<path d="M1050 2314 c-14 -2 -56 -9 -95 -15 -151 -24 -343 -105 -469 -198
-417 -305 -587 -831 -426 -1313 133 -397 474 -695 883 -773 116 -22 349 -20
457 4 237 53 429 160 592 329 219 227 328 495 328 805 0 314 -105 577 -320
800 -172 180 -357 286 -590 338 -81 18 -306 33 -360 23z m55 -716 l28 -22 -5
-418 c-4 -410 -5 -419 -26 -440 -11 -12 -34 -21 -49 -21 -42 0 -756 406 -771
438 -13 28 -4 63 23 85 29 24 739 400 756 400 9 0 29 -10 44 -22z m229 -173
c21 -36 40 -65 42 -65 1 0 24 29 49 65 30 41 54 65 66 65 10 0 19 -2 19 -5 0
-3 -25 -42 -55 -88 -52 -77 -55 -85 -55 -144 0 -61 -1 -63 -25 -63 -24 0 -25
3 -25 61 0 57 -4 66 -55 145 -30 47 -55 87 -55 89 0 3 12 5 28 5 23 0 33 -11
66 -65z m385 10 c59 -30 78 -137 36 -201 -39 -59 -130 -66 -180 -14 -33 35
-45 112 -25 161 25 60 107 87 169 54z m169 -84 c4 -126 21 -146 81 -95 30 25
31 28 31 111 0 82 1 84 23 81 21 -3 22 -7 25 -130 l3 -128 -26 0 c-19 0 -25 5
-25 22 l0 21 -25 -23 c-34 -32 -91 -33 -116 -1 -16 20 -19 41 -19 133 0 108 0
109 23 106 21 -3 22 -8 25 -97z m-558 -304 c15 -43 30 -80 32 -83 3 -2 19 33
35 78 28 78 32 83 62 86 l31 3 0 -150 c0 -144 -1 -151 -20 -151 -18 0 -20 8
-22 118 l-3 117 -31 -85 c-24 -64 -36 -86 -51 -88 -17 -3 -25 11 -51 80 l-31
83 0 -112 c-1 -106 -2 -113 -21 -113 -19 0 -20 7 -20 151 l0 150 31 -3 c30 -3
33 -8 59 -81z m391 24 c22 -17 24 -29 27 -114 3 -84 6 -96 23 -100 10 -3 19
-10 19 -15 0 -17 -44 -22 -67 -7 -19 13 -26 13 -58 -1 -94 -39 -166 47 -97
116 20 20 42 30 80 35 54 7 59 13 42 46 -12 21 -61 26 -104 9 -23 -8 -26 -7
-26 11 0 40 118 55 161 20z m166 -1 c5 -20 5 -20 30 0 37 29 87 26 112 -6 18
-23 21 -41 21 -130 l0 -104 -25 0 c-25 0 -25 1 -25 89 0 49 -3 96 -6 105 -9
23 -54 20 -81 -6 -20 -19 -23 -31 -23 -105 0 -82 0 -83 -25 -83 l-25 0 0 130
c0 125 1 130 21 130 12 0 23 -8 26 -20z"/>
<path d="M1611 1384 c-55 -70 2 -189 73 -156 46 21 56 121 18 165 -23 26 -67
22 -91 -9z"/>
<path d="M1606 931 c-26 -29 -13 -61 25 -61 47 0 69 16 69 50 0 28 -2 30 -38
30 -26 0 -45 -7 -56 -19z"/>
</g>
</svg>
